<mxfile host="app.diagrams.net" modified="2022-02-11T05:16:49.033Z" agent="5.0 (Macintosh; Intel Mac OS X 10_15_7) AppleWebKit/537.36 (KHTML, like Gecko) Chrome/97.0.4692.99 Safari/537.36" etag="-sG1Ar-vXR3I4lSJuHQx" version="16.5.3" type="github">
  <diagram id="lDeH0wx-_xg5K4NbAlts" name="第 1 页">
    <mxGraphModel dx="851" dy="372" grid="1" gridSize="10" guides="1" tooltips="1" connect="1" arrows="1" fold="1" page="1" pageScale="1" pageWidth="850" pageHeight="1100" math="0" shadow="0">
      <root>
        <mxCell id="0" />
        <mxCell id="1" parent="0" />
        <mxCell id="JQi8AXJb9ThtzIiv9MI1-4" style="edgeStyle=orthogonalEdgeStyle;rounded=0;orthogonalLoop=1;jettySize=auto;html=1;exitX=1;exitY=0.5;exitDx=0;exitDy=0;" edge="1" parent="1" source="JQi8AXJb9ThtzIiv9MI1-1" target="JQi8AXJb9ThtzIiv9MI1-2">
          <mxGeometry relative="1" as="geometry" />
        </mxCell>
        <mxCell id="JQi8AXJb9ThtzIiv9MI1-1" value="获取研报内容" style="rounded=0;whiteSpace=wrap;html=1;" vertex="1" parent="1">
          <mxGeometry x="120" y="100" width="120" height="60" as="geometry" />
        </mxCell>
        <mxCell id="JQi8AXJb9ThtzIiv9MI1-5" style="edgeStyle=orthogonalEdgeStyle;rounded=0;orthogonalLoop=1;jettySize=auto;html=1;exitX=1;exitY=0.5;exitDx=0;exitDy=0;" edge="1" parent="1" source="JQi8AXJb9ThtzIiv9MI1-2" target="JQi8AXJb9ThtzIiv9MI1-3">
          <mxGeometry relative="1" as="geometry" />
        </mxCell>
        <mxCell id="JQi8AXJb9ThtzIiv9MI1-2" value="原文保存到对象存储" style="rounded=0;whiteSpace=wrap;html=1;" vertex="1" parent="1">
          <mxGeometry x="300" y="100" width="120" height="60" as="geometry" />
        </mxCell>
        <mxCell id="JQi8AXJb9ThtzIiv9MI1-3" value="研报信息保存到DeltaLake" style="rounded=0;whiteSpace=wrap;html=1;" vertex="1" parent="1">
          <mxGeometry x="480" y="100" width="120" height="60" as="geometry" />
        </mxCell>
      </root>
    </mxGraphModel>
  </diagram>
</mxfile>
